<svg xmlns="http://www.w3.org/2000/svg" width="138" height="29.708" viewBox="0 0 138 29.708">
    <defs>
        <style>
            .cls-1,.cls-2{fill-rule:evenodd}.cls-2{fill:#558dca}
        </style>
    </defs>
    <g id="Page-1_1_" transform="translate(-23.6 -34.3)">
        <g id="Group-3_2_" transform="translate(23.6 34.3)">
            <path id="piktor-copy-8_7_" d="M27.532 60.635L23.6 64.008V41.062h.946l1.557 1.85a10.677 10.677 0 0 1 1.162-.946 9.6 9.6 0 0 1 1.308-.766 7.463 7.463 0 0 1 1.411-.508 6.162 6.162 0 0 1 1.471-.189 7.952 7.952 0 0 1 3.037.576 7.44 7.44 0 0 1 4.164 4.19 8.735 8.735 0 0 1 .62 3.312 8.891 8.891 0 0 1-.62 3.4 7.712 7.712 0 0 1-1.678 2.564 7.164 7.164 0 0 1-2.487 1.609 8.282 8.282 0 0 1-3.037.559 4.554 4.554 0 0 1-1.024-.112 7.03 7.03 0 0 1-1-.31c-.327-.129-.654-.275-.972-.439s-.628-.327-.921-.5l-.009 5.283zm7.822-12.045a4.679 4.679 0 0 0-.31-1.747 3.834 3.834 0 0 0-.835-1.308 3.634 3.634 0 0 0-1.248-.826 3.917 3.917 0 0 0-1.514-.284 3.974 3.974 0 0 0-1.506.284 3.559 3.559 0 0 0-1.239.826 3.919 3.919 0 0 0-.835 1.308 4.679 4.679 0 0 0-.31 1.747 4.547 4.547 0 0 0 .31 1.7 3.958 3.958 0 0 0 .833 1.32 3.728 3.728 0 0 0 1.239.843 3.857 3.857 0 0 0 1.506.3 3.9 3.9 0 0 0 1.514-.3 3.763 3.763 0 0 0 1.248-.843 3.958 3.958 0 0 0 .835-1.316 4.547 4.547 0 0 0 .312-1.704zM46.049 36.9a2.491 2.491 0 0 1-.207 1.015 2.67 2.67 0 0 1-1.4 1.385 2.642 2.642 0 0 1-2.048 0 2.638 2.638 0 0 1-1.385-1.385 2.578 2.578 0 0 1 0-2.022 2.638 2.638 0 0 1 1.385-1.385 2.642 2.642 0 0 1 2.048 0 2.682 2.682 0 0 1 .835.559 2.554 2.554 0 0 1 .774 1.833zm-.671 19.5h-3.933V41.217a6.267 6.267 0 0 0 1.97.473 6.319 6.319 0 0 0 1.97-.473v15.177zm5.386-.258l-1.308-.482-1.1-1.807V34.971h3.932v13.508l5.824-7.379H62.6l-5.085 6.384 5.085 8.91h-4.488l-3.106-5.566-2.719 3.6zm21.072.258a6.7 6.7 0 0 1-2.659-.533 7.036 7.036 0 0 1-2.186-1.471A6.8 6.8 0 0 1 65.52 52.2a6.582 6.582 0 0 1-.533-2.658v-4.548h-2.969l2.968-3.889L68.876 36v5.1H74.8v3.889h-5.924v4.551a2.876 2.876 0 0 0 .232 1.153 2.944 2.944 0 0 0 .628.938 3.005 3.005 0 0 0 .946.637 2.917 2.917 0 0 0 1.162.232H74.8v3.889zm19.971-7.8a8.224 8.224 0 0 1-.62 3.2 8.079 8.079 0 0 1-1.678 2.564 7.711 7.711 0 0 1-2.487 1.7 7.8 7.8 0 0 1-6.092 0 7.828 7.828 0 0 1-4.165-4.267 8.224 8.224 0 0 1-.62-3.2 8.335 8.335 0 0 1 .62-3.235 8.118 8.118 0 0 1 1.678-2.572 7.877 7.877 0 0 1 2.487-1.695 7.521 7.521 0 0 1 3.037-.619 8.008 8.008 0 0 1 3.055.576 7.507 7.507 0 0 1 2.487 1.643 7.891 7.891 0 0 1 1.678 2.564 8.673 8.673 0 0 1 .62 3.331zm-3.941 0a4.56 4.56 0 0 0-.31-1.712 4.141 4.141 0 0 0-.835-1.316 3.6 3.6 0 0 0-1.239-.843 4.022 4.022 0 0 0-3.012 0 3.491 3.491 0 0 0-1.23.843 4.275 4.275 0 0 0-.826 1.316 4.7 4.7 0 0 0-.3 1.712 4.431 4.431 0 0 0 .3 1.643 3.977 3.977 0 0 0 .826 1.316 3.921 3.921 0 0 0 1.23.878 3.584 3.584 0 0 0 1.506.318 3.825 3.825 0 0 0 1.506-.3 3.728 3.728 0 0 0 1.239-.843 3.958 3.958 0 0 0 .835-1.316 4.31 4.31 0 0 0 .31-1.706zm10.007 7.8h-3.907V41.062h.946l1.288 1.816a6.671 6.671 0 0 1 2.151-1.325 6.854 6.854 0 0 1 2.487-.465h3.45v3.889h-3.45a2.918 2.918 0 0 0-1.162.232 2.866 2.866 0 0 0-1.576 1.575 2.917 2.917 0 0 0-.232 1.161z" class="cls-1" transform="translate(-23.6 -34.3)"/>
            <path id="Path_1" d="M311.3 128.6v-2.934l9.757-12.364h4.5l-11.805 15.3z" class="cls-2" data-name="Path 1" transform="translate(-286.548 -106.504)"/>
            <path id="labs_2_" d="M986.232 73.025H982.3V51.6h3.932zm17.819 0h-.946l-1.514-2.108a12.515 12.515 0 0 1-1.179.938 8.608 8.608 0 0 1-1.308.757 7.68 7.68 0 0 1-1.411.508 6.038 6.038 0 0 1-1.463.189 8.454 8.454 0 0 1-3.037-.542 7.1 7.1 0 0 1-2.487-1.583 7.268 7.268 0 0 1-1.678-2.538 9.068 9.068 0 0 1-.62-3.425 8.5 8.5 0 0 1 .62-3.287 8.025 8.025 0 0 1 1.678-2.573 7.668 7.668 0 0 1 2.487-1.669 7.8 7.8 0 0 1 3.037-.594 5.658 5.658 0 0 1 1.471.189 8.038 8.038 0 0 1 1.42.516 8.716 8.716 0 0 1 1.308.774 12.581 12.581 0 0 1 1.17.955l1.514-1.816h.947l-.009 15.307zm-3.932-7.8a4.015 4.015 0 0 0-.31-1.549 4.538 4.538 0 0 0-.835-1.334 4.112 4.112 0 0 0-1.239-.929 3.368 3.368 0 0 0-1.506-.353 4.142 4.142 0 0 0-1.506.275 3.385 3.385 0 0 0-1.23.8 3.949 3.949 0 0 0-.826 1.308 5.416 5.416 0 0 0 0 3.562 3.692 3.692 0 0 0 .826 1.308 3.385 3.385 0 0 0 1.23.8 4.176 4.176 0 0 0 1.506.275 3.341 3.341 0 0 0 1.506-.353 4.112 4.112 0 0 0 1.239-.929 4.427 4.427 0 0 0 .835-1.334 4.015 4.015 0 0 0 .311-1.551zm22.251 0a8.516 8.516 0 0 1-.62 3.3 7.946 7.946 0 0 1-1.678 2.555 7.316 7.316 0 0 1-2.487 1.652 8.012 8.012 0 0 1-3.055.585 7.7 7.7 0 0 1-7.2-4.836 8.523 8.523 0 0 1-.619-3.252V51.6h3.923v7.159a3.388 3.388 0 0 1 .766-.714 5.006 5.006 0 0 1 .972-.516 6.3 6.3 0 0 1 1.084-.31 5.922 5.922 0 0 1 1.084-.1 7.69 7.69 0 0 1 5.541 2.306 8.122 8.122 0 0 1 1.678 2.573 8.355 8.355 0 0 1 .611 3.223zm-3.932 0a4.342 4.342 0 0 0-.31-1.652 4.181 4.181 0 0 0-.835-1.325 3.8 3.8 0 0 0-1.239-.869 3.721 3.721 0 0 0-1.506-.318 3.341 3.341 0 0 0-1.506.353 4.112 4.112 0 0 0-1.239.929 4.24 4.24 0 0 0-.826 1.334 4.17 4.17 0 0 0-.3 1.549 4.432 4.432 0 0 0 .3 1.643 3.923 3.923 0 0 0 2.065 2.194 3.72 3.72 0 0 0 3.011 0 3.955 3.955 0 0 0 1.239-.878 4.14 4.14 0 0 0 .835-1.316 4.3 4.3 0 0 0 .311-1.648zm14.516 7.8h-8.931v-3.889h8.931a.969.969 0 0 0 .972-.972.533.533 0 0 0-.284-.542 1.666 1.666 0 0 0-.688-.129h-4.061a4.7 4.7 0 0 1-1.9-.387 4.98 4.98 0 0 1-1.549-1.05 5.162 5.162 0 0 1-1.041-1.549 4.887 4.887 0 0 1 1.041-5.352 4.956 4.956 0 0 1 1.549-1.041 4.692 4.692 0 0 1 1.9-.379h7.916v3.881h-7.916a.969.969 0 0 0-.972.972.967.967 0 0 0 .284.706.951.951 0 0 0 .688.293h4.061a5.312 5.312 0 0 1 1.893.336 4.7 4.7 0 0 1 1.549.938 4.5 4.5 0 0 1 1.041 1.446 4.372 4.372 0 0 1 .387 1.85 4.628 4.628 0 0 1-.387 1.893 5.16 5.16 0 0 1-1.037 1.55 4.678 4.678 0 0 1-1.549 1.041 4.867 4.867 0 0 1-1.897.384z" class="cls-1" transform="translate(-899.824 -50.111)"/>
        </g>
    </g>
</svg>
